<svg width="26" height="15" viewBox="0 0 26 15" fill="none" xmlns="http://www.w3.org/2000/svg">
<path d="M1.62495 9.20838H2.43745V12.4597C2.43747 12.7467 2.55147 13.0219 2.75438 13.2248C2.9573 13.4277 3.2325 13.5417 3.51947 13.5417H4.60559C4.74768 13.5418 4.88837 13.5138 5.01964 13.4594C5.15091 13.405 5.27019 13.3253 5.37065 13.2248C5.47111 13.1244 5.5508 13.0051 5.60517 12.8738C5.65953 12.7425 5.6875 12.6018 5.68748 12.4597V2.70689C5.68748 2.56481 5.6595 2.42412 5.60514 2.29286C5.55077 2.1616 5.47108 2.04233 5.37061 1.94186C5.27015 1.8414 5.15088 1.76171 5.01962 1.70734C4.88835 1.65297 4.74767 1.62499 4.60559 1.625H3.51947C3.23253 1.62501 2.95734 1.739 2.75443 1.94188C2.55152 2.14477 2.4375 2.41994 2.43745 2.70689V5.95836H1.62495C1.19397 5.95836 0.780641 6.12957 0.475892 6.43432C0.171143 6.73907 -6.3112e-05 7.15239 -6.3112e-05 7.58337C-6.3112e-05 8.01435 0.171143 8.42768 0.475892 8.73243C0.780641 9.03718 1.19397 9.20838 1.62495 9.20838Z" fill="#D9CCBF"/>
<path d="M8.398 14.625H9.47698C9.76487 14.625 10.041 14.5106 10.2445 14.307C10.4481 14.1034 10.5624 13.8273 10.5624 13.5394V9.2083H15.4375V13.5394C15.4375 13.8273 15.5519 14.1034 15.7555 14.307C15.959 14.5106 16.2352 14.625 16.5231 14.625H17.602C17.8899 14.625 18.166 14.5106 18.3696 14.307C18.5731 14.1034 18.6875 13.8273 18.6875 13.5394V1.62702C18.6875 1.33915 18.5731 1.06306 18.3696 0.859497C18.166 0.655936 17.8899 0.541574 17.602 0.541567H16.5231C16.2352 0.541567 15.9591 0.655922 15.7555 0.859481C15.5519 1.06304 15.4375 1.33913 15.4375 1.62702V5.95827H10.5624V1.62702C10.5624 1.33915 10.4481 1.06306 10.2445 0.859497C10.0409 0.655936 9.76486 0.541574 9.47698 0.541567H8.398C8.11011 0.541567 7.83401 0.655922 7.63042 0.859481C7.42684 1.06304 7.31245 1.33913 7.31241 1.62702V13.5394C7.31244 13.8273 7.42683 14.1034 7.63041 14.307C7.83399 14.5106 8.1101 14.625 8.398 14.625Z" fill="#D9CCBF"/>
<path d="M21.3945 13.5417H22.4806C22.6227 13.5418 22.7634 13.5138 22.8946 13.4594C23.0259 13.405 23.1452 13.3253 23.2457 13.2248C23.3461 13.1244 23.4258 13.0051 23.4802 12.8738C23.5345 12.7425 23.5625 12.6018 23.5625 12.4597V9.20838H24.375C24.806 9.20838 25.2193 9.03718 25.524 8.73243C25.8288 8.42768 26 8.01435 26 7.58337C26 7.15239 25.8288 6.73907 25.524 6.43432C25.2193 6.12957 24.806 5.95836 24.375 5.95836H23.5625V2.70689C23.5625 2.56481 23.5345 2.42412 23.4801 2.29286C23.4258 2.1616 23.3461 2.04233 23.2456 1.94186C23.1452 1.8414 23.0259 1.76171 22.8946 1.70734C22.7634 1.65297 22.6227 1.62499 22.4806 1.625H21.3945C21.1075 1.62501 20.8323 1.739 20.6294 1.94188C20.4265 2.14477 20.3125 2.41994 20.3125 2.70689V12.4597C20.3125 12.7467 20.4265 13.0219 20.6294 13.2248C20.8323 13.4277 21.1075 13.5417 21.3945 13.5417Z" fill="#D9CCBF"/>
</svg>
