<svg width="25" height="25" viewBox="0 0 25 25" fill="none" xmlns="http://www.w3.org/2000/svg">
<g clip-path="url(#clip0_135_1098)">
<path d="M4.28516 7.87888H9.65234C10.5223 7.87888 10.1441 6.71833 10.1441 6.71833L8.24844 0.35583C8.06641 -0.254326 7.4918 0.0296582 7.19688 0.224971C5.14336 1.75661 3.72344 4.0695 3.39883 6.71677C3.39649 6.74099 3.27695 7.87888 4.28516 7.87888Z" fill="#D9CCBF"/>
<path d="M21.6719 10.6121C21.6672 9.48433 20.5781 9.38315 20.2672 9.37769H4.28516C3.39844 9.37769 3.36602 10.0757 3.38398 10.3363C3.88125 14.7781 7.79375 18.239 12.5496 18.239C17.2055 18.239 21.0457 14.9195 21.6719 10.6121Z" fill="#D9CCBF"/>
<path d="M6.24062 25.0144C7.84959 25.0144 9.15391 23.7101 9.15391 22.1011C9.15391 20.4922 7.84959 19.1879 6.24062 19.1879C4.63166 19.1879 3.32734 20.4922 3.32734 22.1011C3.32734 23.7101 4.63166 25.0144 6.24062 25.0144Z" fill="#D9CCBF"/>
<path d="M18.759 25.0144C20.3679 25.0144 21.6723 23.7101 21.6723 22.1011C21.6723 20.4922 20.3679 19.1879 18.759 19.1879C17.15 19.1879 15.8457 20.4922 15.8457 22.1011C15.8457 23.7101 17.15 25.0144 18.759 25.0144Z" fill="#D9CCBF"/>
</g>
<defs>
<clipPath id="clip0_135_1098">
<rect width="25" height="25" fill="white"/>
</clipPath>
</defs>
</svg>
