<svg width="21" height="20" viewBox="0 0 21 20" fill="none" xmlns="http://www.w3.org/2000/svg">
<path d="M5.02174 9.80386H15.9783C16.2241 9.80386 16.4348 10.0178 16.4348 10.2673C16.4348 10.5169 16.2241 10.7308 15.9783 10.7308H5.02174C4.77592 10.7308 4.56522 10.5169 4.56522 10.2673C4.56522 10.0178 4.77592 9.80386 5.02174 9.80386ZM12.3261 13.5115H5.02174C4.77592 13.5115 4.56522 13.7254 4.56522 13.975C4.56522 14.2245 4.77592 14.4384 5.02174 14.4384H12.3261C12.5719 14.4384 12.7826 14.2245 12.7826 13.975C12.7826 13.7076 12.5719 13.5115 12.3261 13.5115ZM19.1739 5.16928V19.073H20.5435C20.7893 19.073 21 19.2869 21 19.5365C21 19.786 20.7893 19.9999 20.5435 19.9999H0.456522C0.210702 19.9999 0 19.786 0 19.5365C0 19.2869 0.210702 19.073 0.456522 19.073H1.82609V5.16928H0.456522C0.210702 5.16928 0 4.95537 0 4.70582C0 4.45627 0.210702 4.24236 0.456522 4.24236H5.74164L9.53428 0.392095C10.0435 -0.124839 10.9565 -0.124839 11.4657 0.392095L15.2584 4.24236H20.5435C20.7893 4.24236 21 4.45627 21 4.70582C21 4.95537 20.7893 5.16928 20.5435 5.16928H19.1739ZM7.04097 4.24236H13.959L10.8161 1.05163C10.6405 0.873379 10.342 0.873379 10.1664 1.05163L7.04097 4.24236ZM18.2609 5.16928H2.73913V19.073H18.2609V5.16928Z" fill="#D9CCBF"/>
</svg>
