<svg width="30" height="21" viewBox="0 0 30 21" fill="none" xmlns="http://www.w3.org/2000/svg">
<path d="M15 19.5596C16.875 19.5596 19.9805 19.5362 23.543 17.4737C27.1055 15.4112 28.2656 12.8448 28.6289 11.5206C28.6624 11.4013 28.6715 11.2765 28.6559 11.1536C28.6402 11.0307 28.6001 10.9122 28.5378 10.8051C28.4755 10.698 28.3923 10.6045 28.2933 10.5301C28.1942 10.4557 28.0812 10.402 27.9609 10.3721C27.1055 10.1495 25.6055 9.95024 23.6836 10.4073" stroke="#D9CCBF" stroke-width="1.5" stroke-linecap="round" stroke-linejoin="round"/>
<path d="M6.3164 10.3955C4.39453 9.95022 2.89453 10.1494 2.03906 10.3721C1.91883 10.402 1.80583 10.4557 1.70674 10.5301C1.60765 10.6045 1.5245 10.698 1.46221 10.8051C1.39992 10.9121 1.35976 11.0307 1.34411 11.1536C1.32846 11.2765 1.33763 11.4012 1.37109 11.5205C1.73437 12.8447 2.89453 15.4229 6.45703 17.4737C10.0195 19.5244 13.125 19.5596 15 19.5596" stroke="#D9CCBF" stroke-width="1.5" stroke-linecap="round" stroke-linejoin="round"/>
<path d="M15 19.5596C15 19.5596 19.6875 17.0049 19.6875 10.1846C19.6875 4.84087 16.8047 2.12212 15.5625 1.18462C15.3995 1.06469 15.2024 1 15 1C14.7976 1 14.6005 1.06469 14.4375 1.18462C13.1953 2.12212 10.3125 4.84087 10.3125 10.1846C10.3125 17.0049 15 19.5596 15 19.5596Z" stroke="#D9CCBF" stroke-width="1.5" stroke-linecap="round" stroke-linejoin="round"/>
<path d="M15 19.5596C16.4062 19.2549 20.1914 17.1221 22.4648 13.1846C24.7383 9.24711 24.1758 6.1182 23.7305 4.74711C23.6624 4.5266 23.5134 4.34002 23.3134 4.22481C23.1134 4.10961 22.8773 4.07432 22.6523 4.12602C21.3068 4.42736 20.0481 5.03265 18.9727 5.89555" stroke="#D9CCBF" stroke-width="1.5" stroke-linecap="round" stroke-linejoin="round"/>
<path d="M11.0273 5.89555C9.95187 5.03265 8.69317 4.42736 7.34766 4.12602C7.12274 4.07432 6.88658 4.10961 6.68661 4.22481C6.48663 4.34002 6.33764 4.5266 6.26953 4.74711C5.82422 6.1182 5.26172 9.25883 7.53516 13.1846C9.80859 17.1104 13.5938 19.2549 15 19.5596" stroke="#D9CCBF" stroke-width="1.5" stroke-linecap="round" stroke-linejoin="round"/>
</svg>
