<svg width="8" height="28" viewBox="0 0 8 28" fill="none" xmlns="http://www.w3.org/2000/svg">
<path d="M1.83333 11C2.10947 11 2.33333 11.2239 2.33333 11.5C2.33333 11.7761 2.10947 12 1.83333 12C1.55719 12 1.33333 11.7761 1.33333 11.5C1.33333 11.2239 1.55719 11 1.83333 11Z" stroke="#959595"/>
<path d="M1.83333 6C2.10947 6 2.33333 6.22386 2.33333 6.5C2.33333 6.77614 2.10947 7 1.83333 7C1.55719 7 1.33333 6.77614 1.33333 6.5C1.33333 6.22386 1.55719 6 1.83333 6Z" stroke="#959595"/>
<path d="M1.83333 1C2.10947 1 2.33333 1.2239 2.33333 1.5C2.33333 1.7761 2.10947 2 1.83333 2C1.55719 2 1.33333 1.7761 1.33333 1.5C1.33333 1.2239 1.55719 1 1.83333 1Z" stroke="#959595"/>
<path d="M6.3 11C6.57614 11 6.8 11.2239 6.8 11.5C6.8 11.7761 6.57614 12 6.3 12C6.02386 12 5.8 11.7761 5.8 11.5C5.8 11.2239 6.02386 11 6.3 11Z" stroke="#959595"/>
<path d="M6.3 6C6.57614 6 6.8 6.22386 6.8 6.5C6.8 6.77614 6.57614 7 6.3 7C6.02386 7 5.8 6.77614 5.8 6.5C5.8 6.22386 6.02386 6 6.3 6Z" stroke="#959595"/>
<path d="M6.3 1C6.57614 1 6.8 1.2239 6.8 1.5C6.8 1.7761 6.57614 2 6.3 2C6.02386 2 5.8 1.7761 5.8 1.5C5.8 1.2239 6.02386 1 6.3 1Z" stroke="#959595"/>
<path d="M1.83333 26C2.10947 26 2.33333 26.2239 2.33333 26.5C2.33333 26.7761 2.10947 27 1.83333 27C1.55719 27 1.33333 26.7761 1.33333 26.5C1.33333 26.2239 1.55719 26 1.83333 26Z" stroke="#959595"/>
<path d="M1.83333 21C2.10947 21 2.33333 21.2239 2.33333 21.5C2.33333 21.7761 2.10947 22 1.83333 22C1.55719 22 1.33333 21.7761 1.33333 21.5C1.33333 21.2239 1.55719 21 1.83333 21Z" stroke="#959595"/>
<path d="M1.83333 16C2.10947 16 2.33333 16.2239 2.33333 16.5C2.33333 16.7761 2.10947 17 1.83333 17C1.55719 17 1.33333 16.7761 1.33333 16.5C1.33333 16.2239 1.55719 16 1.83333 16Z" stroke="#959595"/>
<path d="M6.3 26C6.57614 26 6.8 26.2239 6.8 26.5C6.8 26.7761 6.57614 27 6.3 27C6.02386 27 5.8 26.7761 5.8 26.5C5.8 26.2239 6.02386 26 6.3 26Z" stroke="#959595"/>
<path d="M6.3 21C6.57614 21 6.8 21.2239 6.8 21.5C6.8 21.7761 6.57614 22 6.3 22C6.02386 22 5.8 21.7761 5.8 21.5C5.8 21.2239 6.02386 21 6.3 21Z" stroke="#959595"/>
<path d="M6.3 16C6.57614 16 6.8 16.2239 6.8 16.5C6.8 16.7761 6.57614 17 6.3 17C6.02386 17 5.8 16.7761 5.8 16.5C5.8 16.2239 6.02386 16 6.3 16Z" stroke="#959595"/>
</svg>
