<svg width="22" height="20" viewBox="0 0 22 20" fill="none" xmlns="http://www.w3.org/2000/svg">
<path d="M1.91304 17.7273C1.91304 18.986 2.97993 20 4.30435 20H11.9565C12.214 20 12.4348 19.7902 12.4348 19.5455C12.4348 19.3007 12.214 19.0909 11.9565 19.0909H4.30435C3.51338 19.0909 2.86957 18.479 2.86957 17.7273V15.4545H4.30435C4.56187 15.4545 4.78261 15.2448 4.78261 15C4.78261 14.7552 4.56187 14.5455 4.30435 14.5455H2.86957V11.8182H4.30435C4.56187 11.8182 4.78261 11.6084 4.78261 11.3636C4.78261 11.1189 4.56187 10.9091 4.30435 10.9091H2.86957V8.18182H4.30435C4.56187 8.18182 4.78261 7.97203 4.78261 7.72727C4.78261 7.48252 4.56187 7.27273 4.30435 7.27273H2.86957V4.07343C3.27425 4.35315 3.7709 4.54545 4.30435 4.54545H16.7391C16.9967 4.54545 17.2174 4.75524 17.2174 5V7.72727C17.2174 7.97203 17.4381 8.18182 17.6957 8.18182C17.9532 8.18182 18.1739 7.97203 18.1739 7.72727V5C18.1739 4.40559 17.7692 3.91608 17.2174 3.72378V0.909091H17.6957C17.9532 0.909091 18.1739 0.699301 18.1739 0.454545C18.1739 0.20979 17.9532 0 17.6957 0H4.30435C2.97993 0 1.91304 1.01399 1.91304 2.27273V7.27273H0.478261C0.220736 7.27273 0 7.48252 0 7.72727C0 7.97203 0.220736 8.18182 0.478261 8.18182H1.91304V10.9091H0.478261C0.220736 10.9091 0 11.1189 0 11.3636C0 11.6084 0.220736 11.8182 0.478261 11.8182H1.91304V14.5455H0.478261C0.220736 14.5455 0 14.7552 0 15C0 15.2448 0.220736 15.4545 0.478261 15.4545H1.91304V17.7273ZM4.30435 0.909091H16.2609V3.63636H4.30435C3.51338 3.63636 2.86957 3.02448 2.86957 2.27273C2.86957 1.52098 3.51338 0.909091 4.30435 0.909091ZM15.3043 11.3636C15.3043 12.6224 16.3712 13.6364 17.6957 13.6364C19.0201 13.6364 20.087 12.6224 20.087 11.3636C20.087 10.1049 19.0201 9.09091 17.6957 9.09091C16.3712 9.09091 15.3043 10.1049 15.3043 11.3636ZM19.1304 11.3636C19.1304 12.1154 18.4866 12.7273 17.6957 12.7273C16.9047 12.7273 16.2609 12.1154 16.2609 11.3636C16.2609 10.6119 16.9047 10 17.6957 10C18.4866 10 19.1304 10.6119 19.1304 11.3636ZM18.6522 14.5455H16.7391C14.8997 14.5455 13.3913 15.979 13.3913 17.7273V18.6364C13.3913 19.3881 14.0351 20 14.8261 20H20.5652C21.3562 20 22 19.3881 22 18.6364V17.7273C22 15.979 20.4916 14.5455 18.6522 14.5455ZM21.0435 18.6364C21.0435 18.8811 20.8227 19.0909 20.5652 19.0909H14.8261C14.5686 19.0909 14.3478 18.8811 14.3478 18.6364V17.7273C14.3478 16.4685 15.4147 15.4545 16.7391 15.4545H18.6522C19.9766 15.4545 21.0435 16.4685 21.0435 17.7273V18.6364Z" fill="white"/>
</svg>
