<svg width="26" height="22" viewBox="0 0 26 22" fill="none" xmlns="http://www.w3.org/2000/svg">
<g clip-path="url(#clip0_135_1114)">
<path d="M13.9286 5.28571C14.1748 5.28571 14.411 5.18788 14.5852 5.01374C14.7593 4.8396 14.8571 4.60341 14.8571 4.35714C14.8571 4.11087 14.7593 3.87468 14.5852 3.70054C14.411 3.5264 14.1748 3.42857 13.9286 3.42857C13.6823 3.42857 13.4461 3.33074 13.272 3.1566C13.0978 2.98246 13 2.74627 13 2.5C13 2.25373 13.0978 2.01754 13.272 1.8434C13.4461 1.66926 13.6823 1.57143 13.9286 1.57143C14.6674 1.57143 15.376 1.27793 15.8984 0.755511C16.4208 0.233089 16.7143 -0.475469 16.7143 -1.21429C16.7143 -1.9531 16.4208 -2.66166 15.8984 -3.18408C15.376 -3.70651 14.6674 -4 13.9286 -4C13.6823 -4 13.4461 -3.90217 13.272 -3.72803C13.0978 -3.55389 13 -3.3177 13 -3.07143C13 -2.82516 13.0978 -2.58897 13.272 -2.41483C13.4461 -2.24069 13.6823 -2.14286 13.9286 -2.14286C14.1748 -2.14286 14.411 -2.04503 14.5852 -1.87088C14.7593 -1.69674 14.8571 -1.46056 14.8571 -1.21429C14.8571 -0.968014 14.7593 -0.731828 14.5852 -0.557687C14.411 -0.383546 14.1748 -0.285715 13.9286 -0.285715C13.1898 -0.285715 12.4812 0.00777949 11.9588 0.530202C11.4364 1.05262 11.1429 1.76118 11.1429 2.5C11.1429 3.23882 11.4364 3.94737 11.9588 4.4698C12.4812 4.99222 13.1898 5.28571 13.9286 5.28571Z" fill="#D9CCBF"/>
<path d="M25.0714 16.4285H19.6857L19.8529 15.4999H21.3571C22.3422 15.4999 23.287 15.1086 23.9835 14.4121C24.6801 13.7155 25.0714 12.7708 25.0714 11.7857V10.8571C25.0714 10.1183 24.7779 9.40972 24.2555 8.88729C23.7331 8.36487 23.0245 8.07138 22.2857 8.07138H21.1993L21.3386 7.30995C21.3637 7.17649 21.3593 7.03914 21.3256 6.90758C21.2919 6.77603 21.2298 6.65346 21.1436 6.54852C21.0563 6.4437 20.9469 6.3594 20.8234 6.30163C20.6998 6.24385 20.565 6.21401 20.4286 6.21423H5.57143C5.43501 6.21401 5.30022 6.24385 5.17664 6.30163C5.05307 6.3594 4.94374 6.4437 4.85643 6.54852C4.77022 6.65346 4.70808 6.77603 4.67439 6.90758C4.6407 7.03914 4.63627 7.17649 4.66143 7.30995L6.31429 16.4285H0.928571C0.682299 16.4285 0.446113 16.5263 0.271972 16.7005C0.0978313 16.8746 0 17.1108 0 17.3571C0 17.6034 0.0978313 17.8395 0.271972 18.0137C0.446113 18.1878 0.682299 18.2857 0.928571 18.2857H2.37714L4.82857 20.9599L4.94929 21.0714C5.75542 21.6694 6.73129 21.9947 7.735 21.9999H18.265C19.2687 21.9947 20.2446 21.6694 21.0507 21.0714L21.1714 20.9599L23.6229 18.2857H25.0714C25.3177 18.2857 25.5539 18.1878 25.728 18.0137C25.9022 17.8395 26 17.6034 26 17.3571C26 17.1108 25.9022 16.8746 25.728 16.7005C25.5539 16.5263 25.3177 16.4285 25.0714 16.4285ZM22.2857 9.92852C22.532 9.92852 22.7682 10.0264 22.9423 10.2005C23.1165 10.3746 23.2143 10.6108 23.2143 10.8571V11.7857C23.2143 12.2782 23.0186 12.7506 22.6703 13.0989C22.3221 13.4471 21.8497 13.6428 21.3571 13.6428H20.1871L20.865 9.92852H22.2857ZM6.68571 8.07138H19.3143L17.8007 16.4285H8.19929L6.68571 8.07138ZM19.8714 19.6321C19.4015 19.9641 18.8404 20.1425 18.265 20.1428H7.735C7.15963 20.1425 6.59846 19.9641 6.12857 19.6321L4.89357 18.2857H21.1064L19.8714 19.6321Z" fill="#D9CCBF"/>
</g>
<defs>
<clipPath id="clip0_135_1114">
<rect width="26" height="26" fill="white" transform="translate(0 -4)"/>
</clipPath>
</defs>
</svg>
