<svg width="24" height="24" viewBox="0 0 24 24" fill="none" xmlns="http://www.w3.org/2000/svg">
<path d="M21 5.16722C21 4.53134 20.7109 3.90304 20.1562 3.47514C19.1854 2.72768 17.7701 2.87825 16.9928 3.81312L13.8551 7.58943L11.1 5.60053C10.128 4.89857 8.75212 5.06648 7.99275 5.98076L3.49275 11.3972C3.162 11.7958 3 12.2757 3 12.7502V16H21V5.16722Z" fill="#D9CCBF"/>
<path d="M20.8889 20H3.11111C2.49778 20 2 20.447 2 21C2 21.553 2.49778 22 3.11111 22H20.8889C21.5022 22 22 21.553 22 21C22 20.447 21.5022 20 20.8889 20Z" fill="#D9CCBF"/>
</svg>
